<mxfile host="app.diagrams.net" modified="2023-05-28T14:08:16.937Z" agent="Mozilla/5.0 (Windows NT 10.0; Win64; x64) AppleWebKit/537.36 (KHTML, like Gecko) Chrome/112.0.0.0 Safari/537.36 OPR/98.0.0.0" etag="AAh9M66Cl_-cBeWSlmaJ" version="21.3.2" type="device">
  <diagram id="6a731a19-8d31-9384-78a2-239565b7b9f0" name="Page-1">
    <mxGraphModel dx="1404" dy="898" grid="1" gridSize="10" guides="1" tooltips="1" connect="1" arrows="1" fold="1" page="1" pageScale="1" pageWidth="1169" pageHeight="827" background="none" math="0" shadow="0">
      <root>
        <mxCell id="0" />
        <mxCell id="1" parent="0" />
        <mxCell id="DnactWimcefN6uqTCnHX-152" style="edgeStyle=orthogonalEdgeStyle;rounded=0;orthogonalLoop=1;jettySize=auto;html=1;entryX=0.5;entryY=0;entryDx=0;entryDy=0;fontSize=11;strokeWidth=3;" edge="1" parent="1" source="DnactWimcefN6uqTCnHX-144" target="DnactWimcefN6uqTCnHX-146">
          <mxGeometry relative="1" as="geometry" />
        </mxCell>
        <mxCell id="DnactWimcefN6uqTCnHX-144" value="" style="strokeWidth=2;html=1;shape=mxgraph.flowchart.start_2;whiteSpace=wrap;fillColor=#000000;strokeColor=#000000;" vertex="1" parent="1">
          <mxGeometry x="190" y="80" width="60" height="60" as="geometry" />
        </mxCell>
        <mxCell id="DnactWimcefN6uqTCnHX-148" style="edgeStyle=orthogonalEdgeStyle;rounded=0;orthogonalLoop=1;jettySize=auto;html=1;entryX=0.5;entryY=0;entryDx=0;entryDy=0;endArrow=none;endFill=0;strokeWidth=3;" edge="1" parent="1" source="DnactWimcefN6uqTCnHX-146" target="DnactWimcefN6uqTCnHX-147">
          <mxGeometry relative="1" as="geometry" />
        </mxCell>
        <mxCell id="DnactWimcefN6uqTCnHX-146" value="Recepção de uma mensagem de um sensor" style="rounded=1;whiteSpace=wrap;html=1;fontSize=18;" vertex="1" parent="1">
          <mxGeometry x="140" y="200" width="160" height="70" as="geometry" />
        </mxCell>
        <mxCell id="DnactWimcefN6uqTCnHX-153" value="[Formato inválido]" style="edgeStyle=orthogonalEdgeStyle;rounded=0;orthogonalLoop=1;jettySize=auto;html=1;entryX=0;entryY=0.5;entryDx=0;entryDy=0;strokeWidth=3;fontSize=18;" edge="1" parent="1" source="DnactWimcefN6uqTCnHX-147" target="DnactWimcefN6uqTCnHX-150">
          <mxGeometry relative="1" as="geometry" />
        </mxCell>
        <mxCell id="DnactWimcefN6uqTCnHX-160" value="[Formato Válido]" style="edgeStyle=orthogonalEdgeStyle;rounded=0;orthogonalLoop=1;jettySize=auto;html=1;entryX=0.5;entryY=0;entryDx=0;entryDy=0;strokeWidth=3;fontSize=18;" edge="1" parent="1" source="DnactWimcefN6uqTCnHX-147" target="DnactWimcefN6uqTCnHX-151">
          <mxGeometry relative="1" as="geometry">
            <mxPoint as="offset" />
          </mxGeometry>
        </mxCell>
        <mxCell id="DnactWimcefN6uqTCnHX-147" value="" style="rhombus;whiteSpace=wrap;html=1;" vertex="1" parent="1">
          <mxGeometry x="180" y="330" width="80" height="80" as="geometry" />
        </mxCell>
        <mxCell id="DnactWimcefN6uqTCnHX-156" style="edgeStyle=orthogonalEdgeStyle;rounded=0;orthogonalLoop=1;jettySize=auto;html=1;fontSize=11;strokeWidth=3;" edge="1" parent="1" source="DnactWimcefN6uqTCnHX-150">
          <mxGeometry relative="1" as="geometry">
            <mxPoint x="1000" y="370" as="targetPoint" />
          </mxGeometry>
        </mxCell>
        <mxCell id="DnactWimcefN6uqTCnHX-150" value="Notifica os consumidores de dados" style="rounded=1;whiteSpace=wrap;html=1;fontSize=18;" vertex="1" parent="1">
          <mxGeometry x="505" y="335" width="160" height="70" as="geometry" />
        </mxCell>
        <mxCell id="DnactWimcefN6uqTCnHX-163" style="edgeStyle=orthogonalEdgeStyle;rounded=0;orthogonalLoop=1;jettySize=auto;html=1;entryX=0.5;entryY=0;entryDx=0;entryDy=0;strokeWidth=3;endArrow=none;endFill=0;" edge="1" parent="1" source="DnactWimcefN6uqTCnHX-151" target="DnactWimcefN6uqTCnHX-162">
          <mxGeometry relative="1" as="geometry" />
        </mxCell>
        <mxCell id="DnactWimcefN6uqTCnHX-151" value="Obtém os dados da mensagem" style="rounded=1;whiteSpace=wrap;html=1;fontSize=18;" vertex="1" parent="1">
          <mxGeometry x="140" y="479" width="160" height="70" as="geometry" />
        </mxCell>
        <mxCell id="DnactWimcefN6uqTCnHX-155" value="" style="endArrow=none;html=1;rounded=0;" edge="1" parent="1">
          <mxGeometry width="50" height="50" relative="1" as="geometry">
            <mxPoint x="1000" y="910" as="sourcePoint" />
            <mxPoint x="1000" y="330" as="targetPoint" />
          </mxGeometry>
        </mxCell>
        <mxCell id="DnactWimcefN6uqTCnHX-157" value="" style="strokeWidth=5;html=1;shape=mxgraph.flowchart.start_2;whiteSpace=wrap;fillColor=#FFFFFF;strokeColor=#000000;" vertex="1" parent="1">
          <mxGeometry x="1160" y="570" width="60" height="60" as="geometry" />
        </mxCell>
        <mxCell id="DnactWimcefN6uqTCnHX-159" style="edgeStyle=orthogonalEdgeStyle;rounded=0;orthogonalLoop=1;jettySize=auto;html=1;endArrow=none;endFill=0;startArrow=classic;startFill=1;exitX=0;exitY=0.5;exitDx=0;exitDy=0;exitPerimeter=0;strokeWidth=3;" edge="1" parent="1" source="DnactWimcefN6uqTCnHX-157">
          <mxGeometry relative="1" as="geometry">
            <mxPoint x="1000" y="600" as="targetPoint" />
            <mxPoint x="1390" y="554" as="sourcePoint" />
            <Array as="points">
              <mxPoint x="1080" y="600" />
              <mxPoint x="1080" y="600" />
            </Array>
          </mxGeometry>
        </mxCell>
        <mxCell id="DnactWimcefN6uqTCnHX-158" value="" style="strokeWidth=2;html=1;shape=mxgraph.flowchart.start_2;whiteSpace=wrap;fillColor=#080808;strokeColor=#000000;" vertex="1" parent="1">
          <mxGeometry x="1167.5" y="577.5" width="45" height="45" as="geometry" />
        </mxCell>
        <mxCell id="DnactWimcefN6uqTCnHX-165" value="[Memória suficiente]" style="edgeStyle=orthogonalEdgeStyle;rounded=0;orthogonalLoop=1;jettySize=auto;html=1;entryX=0.5;entryY=0;entryDx=0;entryDy=0;strokeWidth=3;fontSize=18;" edge="1" parent="1" source="DnactWimcefN6uqTCnHX-162" target="DnactWimcefN6uqTCnHX-164">
          <mxGeometry x="-0.1429" relative="1" as="geometry">
            <mxPoint as="offset" />
          </mxGeometry>
        </mxCell>
        <mxCell id="DnactWimcefN6uqTCnHX-172" value="Memório insuficiente" style="edgeStyle=orthogonalEdgeStyle;rounded=0;orthogonalLoop=1;jettySize=auto;html=1;entryX=0;entryY=0.5;entryDx=0;entryDy=0;fontSize=18;strokeWidth=3;" edge="1" parent="1" source="DnactWimcefN6uqTCnHX-162" target="DnactWimcefN6uqTCnHX-171">
          <mxGeometry x="0.0033" relative="1" as="geometry">
            <mxPoint as="offset" />
          </mxGeometry>
        </mxCell>
        <mxCell id="DnactWimcefN6uqTCnHX-162" value="" style="rhombus;whiteSpace=wrap;html=1;" vertex="1" parent="1">
          <mxGeometry x="180" y="610" width="80" height="80" as="geometry" />
        </mxCell>
        <mxCell id="DnactWimcefN6uqTCnHX-168" style="edgeStyle=orthogonalEdgeStyle;rounded=0;orthogonalLoop=1;jettySize=auto;html=1;entryX=0;entryY=0.5;entryDx=0;entryDy=0;endArrow=none;endFill=0;strokeWidth=3;" edge="1" parent="1" source="DnactWimcefN6uqTCnHX-164" target="DnactWimcefN6uqTCnHX-167">
          <mxGeometry relative="1" as="geometry" />
        </mxCell>
        <mxCell id="DnactWimcefN6uqTCnHX-164" value="Armazena os dados" style="rounded=1;whiteSpace=wrap;html=1;fontSize=18;" vertex="1" parent="1">
          <mxGeometry x="140" y="832" width="160" height="70" as="geometry" />
        </mxCell>
        <mxCell id="DnactWimcefN6uqTCnHX-170" value="[A máquina &lt;br&gt;não está sozinha]" style="edgeStyle=orthogonalEdgeStyle;rounded=0;orthogonalLoop=1;jettySize=auto;html=1;strokeWidth=3;fontSize=18;exitX=0.5;exitY=0;exitDx=0;exitDy=0;" edge="1" parent="1" source="DnactWimcefN6uqTCnHX-167">
          <mxGeometry relative="1" as="geometry">
            <mxPoint x="750" y="784" as="targetPoint" />
            <Array as="points">
              <mxPoint x="440" y="784" />
            </Array>
          </mxGeometry>
        </mxCell>
        <mxCell id="DnactWimcefN6uqTCnHX-177" value="[A máquina está sozinha no arranjo]" style="edgeStyle=orthogonalEdgeStyle;rounded=0;orthogonalLoop=1;jettySize=auto;html=1;strokeWidth=3;fontSize=18;" edge="1" parent="1" source="DnactWimcefN6uqTCnHX-167">
          <mxGeometry relative="1" as="geometry">
            <mxPoint x="1000" y="867" as="targetPoint" />
          </mxGeometry>
        </mxCell>
        <mxCell id="DnactWimcefN6uqTCnHX-167" value="" style="rhombus;whiteSpace=wrap;html=1;" vertex="1" parent="1">
          <mxGeometry x="400" y="827" width="80" height="80" as="geometry" />
        </mxCell>
        <mxCell id="DnactWimcefN6uqTCnHX-176" style="edgeStyle=orthogonalEdgeStyle;rounded=0;orthogonalLoop=1;jettySize=auto;html=1;endArrow=none;endFill=0;startArrow=classic;startFill=1;strokeWidth=3;" edge="1" parent="1" source="DnactWimcefN6uqTCnHX-169">
          <mxGeometry relative="1" as="geometry">
            <mxPoint x="750" y="720" as="targetPoint" />
          </mxGeometry>
        </mxCell>
        <mxCell id="DnactWimcefN6uqTCnHX-178" style="edgeStyle=orthogonalEdgeStyle;rounded=0;orthogonalLoop=1;jettySize=auto;html=1;strokeWidth=3;" edge="1" parent="1" source="DnactWimcefN6uqTCnHX-169">
          <mxGeometry relative="1" as="geometry">
            <mxPoint x="1000" y="720" as="targetPoint" />
          </mxGeometry>
        </mxCell>
        <mxCell id="DnactWimcefN6uqTCnHX-169" value="Notifica outras máquinas com o dado" style="rounded=1;whiteSpace=wrap;html=1;fontSize=18;" vertex="1" parent="1">
          <mxGeometry x="790" y="685" width="160" height="70" as="geometry" />
        </mxCell>
        <mxCell id="DnactWimcefN6uqTCnHX-174" style="edgeStyle=orthogonalEdgeStyle;rounded=0;orthogonalLoop=1;jettySize=auto;html=1;strokeWidth=3;" edge="1" parent="1" source="DnactWimcefN6uqTCnHX-171">
          <mxGeometry relative="1" as="geometry">
            <mxPoint x="750" y="650" as="targetPoint" />
          </mxGeometry>
        </mxCell>
        <mxCell id="DnactWimcefN6uqTCnHX-171" value="Notifica os consumidores de dados" style="rounded=1;whiteSpace=wrap;html=1;fontSize=18;" vertex="1" parent="1">
          <mxGeometry x="505" y="615" width="160" height="70" as="geometry" />
        </mxCell>
        <mxCell id="DnactWimcefN6uqTCnHX-173" value="" style="endArrow=none;html=1;rounded=0;" edge="1" parent="1">
          <mxGeometry width="50" height="50" relative="1" as="geometry">
            <mxPoint x="750" y="810" as="sourcePoint" />
            <mxPoint x="750" y="620" as="targetPoint" />
          </mxGeometry>
        </mxCell>
      </root>
    </mxGraphModel>
  </diagram>
</mxfile>
